<?xml version="1.0" standalone="no"?>
<!DOCTYPE svg PUBLIC "-//W3C//DTD SVG 20010904//EN"
 "http://www.w3.org/TR/2001/REC-SVG-20010904/DTD/svg10.dtd">
<svg version="1.0" xmlns="http://www.w3.org/2000/svg"
 width="500.000000pt" height="500.000000pt" viewBox="0 0 500.000000 500.000000"
 preserveAspectRatio="xMidYMid meet">

<g transform="translate(0.000000,500.000000) scale(0.100000,-0.100000)"
fill="#000000" stroke="none">
<path d="M4060 3118 c-315 -18 -716 -148 -973 -315 -114 -74 -207 -120 -317
-157 -487 -161 -1013 -84 -1469 218 -121 80 -223 123 -352 150 -305 62 -626
38 -877 -66 l-72 -30 0 -349 0 -349 49 25 c128 64 342 105 556 105 167 0 278
-12 400 -45 120 -31 189 -63 294 -133 314 -213 652 -312 1021 -299 293 10 509
74 742 220 413 260 919 381 1338 322 147 -21 448 -99 583 -151 13 -4 17 -1 17
14 0 17 -12 25 -55 38 -50 16 -55 20 -55 46 0 32 3 33 60 13 23 -8 44 -15 46
-15 3 0 3 111 2 246 l-3 247 -52 20 c-48 18 -53 23 -53 49 0 20 4 29 13 25 89
-33 106 -34 94 -4 -5 12 -230 88 -367 122 -185 47 -373 65 -570 53z m130 -58
l0 -30 -60 0 -60 0 0 30 0 30 60 0 60 0 0 -30z m131 20 c37 0 39 -2 39 -30 0
-28 -2 -30 -37 -30 -61 0 -83 10 -83 34 0 28 10 38 28 31 7 -3 31 -5 53 -5z
m-311 -30 c0 -22 -5 -30 -17 -30 -10 0 -35 -3 -55 -6 -37 -6 -38 -6 -38 24 0
32 9 36 83 41 24 1 27 -3 27 -29z m493 3 c11 -3 17 -14 17 -34 0 -24 -4 -29
-17 -25 -10 3 -35 8 -55 12 -34 5 -38 10 -38 36 0 28 1 29 38 23 20 -4 45 -9
55 -12z m-643 -18 c0 -28 -18 -40 -78 -50 -43 -7 -44 -7 -40 21 3 25 9 31 48
41 65 17 70 16 70 -12z m766 -6 c40 -10 44 -14 44 -41 0 -28 -2 -30 -26 -24
-15 4 -39 10 -55 13 -24 4 -29 11 -29 34 0 33 3 33 66 18z m-926 -36 c0 -25
-6 -30 -56 -44 l-55 -17 3 31 c2 24 10 33 38 43 57 20 70 18 70 -13z m-3060
-13 l0 -30 -60 0 c-56 0 -60 1 -60 23 0 33 7 37 67 37 52 0 53 0 53 -30z m143
20 c12 0 17 -8 17 -31 0 -31 -1 -31 -37 -25 -21 3 -46 6 -55 6 -13 0 -18 8
-18 31 0 31 1 31 38 25 20 -3 45 -6 55 -6z m-313 -30 c0 -26 -3 -30 -29 -30
-16 0 -43 -3 -60 -6 -29 -6 -31 -5 -31 24 0 33 9 37 88 41 29 1 32 -2 32 -29z
m4329 9 c36 -11 41 -16 41 -41 0 -15 -1 -28 -3 -28 -2 0 -27 7 -55 15 -48 15
-52 18 -52 46 0 23 4 30 14 26 8 -3 32 -11 55 -18z m-3856 1 c12 0 17 -8 17
-30 0 -33 -6 -35 -72 -24 -34 6 -38 10 -38 37 0 29 1 29 38 23 20 -3 45 -6 55
-6z m3355 -201 l2 -206 -147 -6 c-82 -4 -195 -14 -253 -23 -58 -10 -118 -18
-135 -18 l-30 -1 -3 185 c-1 102 0 195 3 207 6 26 34 35 175 57 56 8 154 14
240 13 l145 -2 3 -206z m-3998 173 c0 -26 -5 -30 -56 -44 l-55 -16 3 31 c3 27
9 33 43 43 59 18 65 17 65 -14z m3240 -7 c0 -21 -9 -30 -42 -45 -57 -26 -68
-25 -68 5 0 21 9 30 43 45 57 25 67 24 67 -5z m1034 0 c163 -37 363 -102 370
-121 3 -9 6 -101 6 -205 0 -152 -3 -191 -14 -195 -7 -3 -56 8 -107 25 -135 42
-191 57 -308 81 -58 12 -108 23 -113 26 -4 3 -8 97 -8 210 l0 204 33 0 c17 0
81 -11 141 -25z m-3456 -15 c1 0 2 -13 2 -30 0 -16 -1 -30 -2 -30 -2 0 -23 6
-48 14 -40 11 -45 17 -48 44 l-3 31 48 -14 c26 -8 49 -15 51 -15z m-978 -20
c0 -27 -6 -33 -46 -50 -25 -11 -48 -20 -50 -20 -2 0 -4 13 -4 29 0 25 7 31 48
49 26 11 48 21 50 21 1 1 2 -13 2 -29z m438 -207 l-3 -208 -75 -8 c-140 -14
-303 -48 -379 -77 -42 -16 -79 -26 -83 -22 -5 5 -7 98 -6 208 l3 199 46 23
c97 48 287 89 422 91 l77 1 -2 -207z m319 187 c118 -21 232 -56 285 -87 l33
-19 3 -207 c1 -114 -1 -207 -5 -207 -5 0 -39 13 -78 29 -89 36 -178 58 -285
72 -47 6 -103 14 -125 17 l-40 7 -3 195 c-1 107 0 200 2 207 8 19 84 16 213
-7z m2483 -9 c0 -16 -6 -31 -12 -34 -7 -3 -30 -12 -50 -21 l-38 -16 0 29 c0
26 6 33 43 50 56 26 57 26 57 -8z m268 -177 c2 -154 -1 -204 -10 -211 -7 -5
-49 -22 -93 -38 -44 -15 -149 -59 -233 -96 -84 -38 -159 -69 -167 -69 -13 0
-15 30 -15 198 0 179 2 201 18 215 41 37 448 210 482 204 13 -2 15 -34 18
-203z m-2421 171 c35 -21 43 -31 43 -55 l0 -30 -50 28 c-41 22 -50 32 -50 55
0 33 2 33 57 2z m2013 -55 c0 -26 -7 -33 -50 -55 l-50 -25 0 30 c0 25 7 33 48
54 26 14 48 25 50 26 1 0 2 -13 2 -30z m-1890 -26 c32 -21 40 -33 40 -56 0
-32 -3 -31 -57 9 -22 16 -33 32 -33 49 0 30 1 30 50 -2z m1747 -77 c-2 -7 -23
-22 -46 -35 l-41 -23 0 28 c0 22 9 34 43 55 41 27 42 27 45 7 2 -11 2 -26 -1
-32z m-1613 -3 c35 -19 46 -32 46 -50 0 -29 -2 -29 -56 -2 -36 18 -44 26 -44
50 0 15 2 28 4 28 2 0 24 -12 50 -26z m-95 -39 c93 -54 247 -126 321 -150 30
-10 61 -22 68 -28 9 -7 12 -62 12 -213 0 -171 -2 -204 -14 -204 -52 0 -343
133 -428 195 l-48 35 0 205 c0 113 3 205 7 205 3 0 40 -20 82 -45z m1581 -13
c0 -23 -8 -32 -45 -50 -25 -12 -48 -22 -50 -22 -3 0 -5 13 -5 29 0 24 7 31 48
49 26 12 48 21 50 22 1 0 2 -13 2 -28z m-1292 -61 l3 -31 -48 19 c-41 16 -48
23 -51 49 l-3 31 48 -19 c42 -15 48 -22 51 -49z m1382 -164 c0 -228 6 -210
-81 -260 -123 -70 -399 -158 -425 -136 -11 9 -14 51 -14 190 0 98 4 188 9 202
8 19 22 26 83 40 102 22 227 69 323 121 44 24 86 44 93 45 9 1 12 -46 12 -202z
m-242 156 c-3 -28 -25 -44 -80 -57 -26 -6 -28 -4 -28 22 0 26 6 31 48 45 63
21 64 21 60 -10z m-1019 -3 c37 -10 41 -14 41 -41 0 -23 -4 -30 -14 -26 -8 3
-33 11 -55 17 -37 10 -41 14 -41 41 0 23 4 30 14 26 8 -3 33 -11 55 -17z m201
-73 l0 -29 -47 7 c-61 9 -63 10 -63 44 l0 28 55 -10 c52 -10 55 -12 55 -40z
m668 26 c-3 -23 -10 -29 -53 -40 -66 -17 -65 -17 -65 16 0 25 5 30 38 39 68
18 84 15 80 -15z m-532 -13 c20 0 24 -5 24 -30 0 -33 -14 -37 -79 -24 -26 6
-31 11 -31 37 0 28 2 29 31 23 17 -3 42 -6 55 -6z m374 -20 c0 -19 -5 -30 -14
-30 -7 0 -34 -3 -60 -6 l-46 -7 0 31 c0 27 4 31 33 35 83 10 87 9 87 -23z
m-172 -12 c3 -28 3 -28 -57 -28 -57 0 -61 1 -61 23 0 32 2 33 62 32 50 0 53
-1 56 -27z m1668 -26 c-4 -3 -29 -9 -56 -12 -50 -6 -50 -6 -50 22 0 29 10 34
75 40 25 3 31 -1 33 -20 2 -13 1 -26 -2 -30z m182 31 c-3 -27 -6 -28 -60 -31
l-58 -3 0 31 0 30 61 0 c60 0 60 0 57 -27z m150 21 c16 -5 22 -14 22 -36 0
-23 -4 -29 -16 -24 -9 3 -36 6 -60 6 -42 0 -44 1 -44 30 0 28 2 30 38 30 20 0
47 -3 60 -6z m170 -24 c7 0 12 -13 12 -31 l0 -30 -47 7 c-61 8 -63 10 -63 43
0 28 1 28 43 20 23 -4 48 -8 55 -9z m-650 -27 c-3 -23 -10 -28 -55 -38 -58
-13 -63 -12 -63 21 0 25 36 41 93 43 25 1 28 -2 25 -26z m782 -3 c19 -5 26
-14 28 -38 2 -23 0 -31 -10 -27 -7 2 -32 9 -55 15 -39 10 -43 14 -43 41 0 32
-4 31 80 9z m-2650 -17 c55 -10 150 -17 270 -18 l185 -2 3 -206 2 -206 -22 -7
c-72 -24 -497 7 -535 38 -10 8 -13 62 -13 208 0 108 3 200 7 203 8 9 4 9 103
-10z m1710 -13 c0 -26 -5 -31 -41 -40 -22 -6 -47 -14 -55 -17 -10 -4 -14 3
-14 25 0 28 4 32 48 45 64 20 62 21 62 -13z m-3230 -19 c0 -24 -5 -29 -31 -35
-17 -3 -45 -6 -61 -6 -26 0 -29 3 -26 28 3 23 9 28 43 33 74 11 75 11 75 -20z
m170 5 c0 -21 -6 -25 -50 -31 -58 -8 -70 -3 -70 31 0 23 3 24 60 24 57 0 60
-1 60 -24z m160 -6 c0 -30 -1 -30 -55 -30 -54 0 -55 0 -55 30 0 30 1 30 55 30
54 0 55 0 55 -30z m110 9 c46 -10 50 -13 50 -40 0 -16 -2 -29 -5 -29 -2 0 -27
5 -55 11 -46 10 -50 13 -50 40 0 16 2 29 5 29 2 0 27 -5 55 -11z m3903 -8 c21
-8 27 -17 27 -39 l0 -29 -55 16 c-50 15 -55 19 -55 45 0 26 3 28 28 23 15 -3
39 -10 55 -16z m-4515 -28 c-3 -27 -5 -28 -80 -47 -26 -6 -28 -4 -28 24 0 25
5 31 33 39 17 5 42 10 55 10 20 1 23 -3 20 -26z m3239 -29 c-3 -3 -28 -14 -56
-24 l-51 -20 0 29 c0 26 6 32 53 49 l52 20 3 -25 c2 -14 1 -27 -1 -29z m-2442
16 c19 -7 25 -17 25 -39 l0 -29 -50 16 c-45 14 -50 19 -50 45 0 31 9 32 75 7z
m-955 -28 c0 -24 -7 -31 -50 -49 l-50 -21 0 29 c0 26 6 33 43 49 55 25 57 25
57 -8z m3240 -22 c0 -30 -20 -47 -77 -64 -20 -6 -23 -4 -23 21 0 28 15 39 98
72 1 1 2 -12 2 -29z m-2110 -62 c0 -15 -2 -28 -4 -28 -2 0 -24 12 -50 26 -39
22 -46 30 -46 55 l0 30 50 -27 c42 -23 50 -32 50 -56z m1970 -6 c0 -23 -8 -32
-45 -50 -25 -12 -48 -22 -50 -22 -3 0 -5 13 -5 28 0 23 8 32 43 49 55 28 57
28 57 -5z m-1872 -33 c14 -9 22 -24 22 -41 0 -16 -2 -28 -5 -28 -3 0 -23 12
-45 26 -32 21 -40 33 -40 56 0 29 1 30 23 16 12 -8 32 -21 45 -29z m1732 -39
c0 -23 -8 -35 -37 -55 -47 -31 -53 -31 -53 -1 0 18 12 34 43 55 23 17 43 30
45 31 1 0 2 -13 2 -30z m-1570 -82 l0 -28 -50 25 c-44 22 -50 29 -50 56 l0 30
50 -27 c42 -23 50 -32 50 -56z m1440 -3 c0 -20 -10 -30 -50 -50 l-50 -25 0 30
c0 24 7 33 38 49 49 27 62 26 62 -4z m-1327 -16 c31 -11 37 -18 37 -41 0 -33
-1 -33 -57 -12 -37 15 -43 21 -43 46 0 20 4 29 13 25 6 -2 29 -10 50 -18z
m1175 -56 c-2 -22 -12 -29 -56 -44 l-53 -18 3 31 c2 26 9 34 38 44 57 21 72
18 68 -13z m-1023 5 c40 -11 45 -15 45 -41 0 -27 -3 -29 -27 -24 -61 12 -83
26 -83 52 0 29 3 29 65 13z m875 -52 c0 -20 -8 -26 -44 -35 -69 -17 -78 -15
-74 16 3 25 9 29 53 39 58 13 65 11 65 -20z m-687 7 c11 -3 17 -14 17 -34 0
-24 -4 -29 -17 -25 -10 3 -35 8 -55 12 -34 5 -38 10 -38 36 0 28 1 29 38 23
20 -4 45 -9 55 -12z m527 -37 c0 -26 -22 -36 -83 -36 -36 0 -38 2 -35 28 3 25
7 27 53 32 61 7 65 5 65 -24z m-366 18 c9 -3 16 -18 16 -33 0 -25 -1 -26 -55
-23 -53 4 -55 5 -55 33 0 27 3 29 39 29 22 0 46 -3 55 -6z m194 -31 c-3 -27
-6 -28 -60 -31 l-58 -3 0 31 0 30 61 0 c60 0 60 0 57 -27z"/>
</g>
</svg>
